<?xml version="1.0" encoding="iso-8859-1"?>
<!-- Generator: Adobe Illustrator 19.0.0, SVG Export Plug-In . SVG Version: 6.00 Build 0)  -->
<svg version="1.1" id="Capa_1" xmlns="http://www.w3.org/2000/svg" xmlns:xlink="http://www.w3.org/1999/xlink" x="0px" y="0px"
	 viewBox="0 0 511.997 511.997" style="enable-background:new 0 0 511.997 511.997;" xml:space="preserve">
<g>
	<g>
		<rect x="207.078" y="312.011" width="97.476" height="199.986"/>
	</g>
</g>
<g>
	<g>
		<path d="M334.95,98.029h-8.067c1.031,4.865,1.582,9.903,1.582,15.071c0,40.061-32.591,72.652-72.652,72.652
			c-40.062,0-72.652-32.591-72.652-72.652c0-5.167,0.552-10.206,1.582-15.071h-8.067c-23.562,0-42.732,19.17-42.732,42.732v67.789
			h243.736v-67.789C377.681,117.199,358.512,98.029,334.95,98.029z"/>
	</g>
</g>
<g>
	<g>
		<path d="M328.882,0l-35.806,50.761c8.796,5.278,16.38,12.368,22.252,20.745l29.177-41.365h51.839V0H328.882z"/>
	</g>
</g>
<g>
	<g>
		<path d="M182.892,0h-79.828v30.141h64.204l29.104,41.262c5.886-8.364,13.479-15.439,22.283-20.702L182.892,0z"/>
	</g>
</g>
<g>
	<g>
		<path d="M377.682,238.691H133.945v88.379h-30.881v30.141h30.881v33.756c0,23.562,19.17,42.732,42.732,42.732h0.259V281.872
			h157.755v151.828h0.259c23.562,0,42.731-19.17,42.731-42.732v-33.756h31.251V327.07h-31.25V238.691z"/>
	</g>
</g>
<g>
	<g>
		<path d="M255.814,70.589c-23.442,0-42.511,19.069-42.511,42.511c0,23.442,19.07,42.511,42.511,42.511s42.511-19.069,42.511-42.511
			C298.325,89.658,279.255,70.589,255.814,70.589z"/>
	</g>
</g>
<g>
</g>
<g>
</g>
<g>
</g>
<g>
</g>
<g>
</g>
<g>
</g>
<g>
</g>
<g>
</g>
<g>
</g>
<g>
</g>
<g>
</g>
<g>
</g>
<g>
</g>
<g>
</g>
<g>
</g>
</svg>
