<?xml version="1.0" encoding="iso-8859-1"?>
<!-- Generator: Adobe Illustrator 19.0.0, SVG Export Plug-In . SVG Version: 6.00 Build 0)  -->
<svg version="1.1" id="Capa_1" xmlns="http://www.w3.org/2000/svg" xmlns:xlink="http://www.w3.org/1999/xlink" x="0px" y="0px"
	 viewBox="0 0 512 512" style="enable-background:new 0 0 512 512;" xml:space="preserve">
<g>
	<g>
		<path d="M256,0C114.615,0,0,114.615,0,256s114.615,256,256,256s256-114.615,256-256S397.385,0,256,0z M179.039,329.3
			l-38.268,66.281c-16.239-13.376-30.399-29.816-41.522-49.081C88.126,327.235,80.97,306.752,77.505,286h77.112
			c9.879,0.464,18.229,5.758,23.534,14.946C182.886,309.147,183.206,320.192,179.039,329.3z M178.152,211.054
			c-4.735,8.201-14.141,14-24.111,14.946H77.506c3.465-20.751,10.621-41.234,21.744-60.5s25.283-35.705,41.522-49.081l38.556,66.781
			C183.865,191.988,183.456,201.866,178.152,211.054z M256,437c-22.246,0-43.563-4.044-63.267-11.419L231.29,358.8
			c5.341-8.323,14.101-12.908,24.71-12.908c9.47,0,19.195,5.246,24.999,13.408l38.268,66.281C299.563,432.956,278.246,437,256,437z
			 M211,256c0-24.813,20.187-45,45-45s45,20.187,45,45s-20.187,45-45,45S211,280.813,211,256z M280.71,153.2
			c-5.341,8.323-14.101,12.908-24.71,12.908c-9.47,0-19.195-5.246-24.999-13.408l-38.268-66.281C212.437,79.044,233.754,75,256,75
			c22.246,0,43.563,4.044,63.267,11.419L280.71,153.2z M412.751,346.5c-11.123,19.265-25.283,35.705-41.522,49.081L332.672,328.8
			c-4.538-8.787-4.129-18.666,1.176-27.854c4.735-8.201,14.141-14,24.111-14.946h76.535
			C431.03,306.752,423.874,327.235,412.751,346.5z M357.383,226c-9.879-0.464-18.229-5.758-23.534-14.946
			c-4.735-8.201-5.054-19.246-0.888-28.354l38.268-66.281c16.239,13.376,30.399,29.816,41.522,49.081
			c11.123,19.265,18.279,39.748,21.744,60.5H357.383z"/>
	</g>
</g>
<g>
	<g>
		<path d="M256,241c-8.271,0-15,6.729-15,15s6.729,15,15,15s15-6.729,15-15S264.271,241,256,241z"/>
	</g>
</g>
<g>
</g>
<g>
</g>
<g>
</g>
<g>
</g>
<g>
</g>
<g>
</g>
<g>
</g>
<g>
</g>
<g>
</g>
<g>
</g>
<g>
</g>
<g>
</g>
<g>
</g>
<g>
</g>
<g>
</g>
</svg>
